<svg width="376" height="50" viewBox="0 0 376 50" fill="none" xmlns="http://www.w3.org/2000/svg">
<rect x="15" y="1" width="361" height="49" rx="16" fill="#93D75D"/>
<path d="M32.415 31.9482H31.2734V28.8926H32.0049C32.2464 28.765 32.4401 28.585 32.5859 28.3525C32.7318 28.1156 32.8411 27.8285 32.9141 27.4912C32.9915 27.154 33.0417 26.7712 33.0645 26.3428L33.4404 20.1357H39.6816V28.8926H40.9121V31.9482H39.7705V30H32.415V31.9482ZM34.2197 26.3701C34.1969 26.7393 34.1628 27.0719 34.1172 27.3682C34.0716 27.6644 34.0033 27.931 33.9121 28.168C33.821 28.4004 33.6934 28.6146 33.5293 28.8105V28.8926H38.4512V21.2432H34.541L34.2197 26.3701ZM45.5947 30.1299C44.8975 30.1299 44.2936 29.9772 43.7832 29.6719C43.2773 29.362 42.8854 28.9222 42.6074 28.3525C42.334 27.7829 42.1973 27.1061 42.1973 26.3223V26.3086C42.1973 25.5202 42.334 24.8411 42.6074 24.2715C42.8854 23.7018 43.2773 23.2643 43.7832 22.959C44.2936 22.6536 44.8975 22.501 45.5947 22.501C46.2965 22.501 46.9004 22.6536 47.4062 22.959C47.9121 23.2643 48.3018 23.7018 48.5752 24.2715C48.8532 24.8411 48.9922 25.5202 48.9922 26.3086V26.3223C48.9922 27.1061 48.8532 27.7829 48.5752 28.3525C48.3018 28.9222 47.9121 29.362 47.4062 29.6719C46.9004 29.9772 46.2965 30.1299 45.5947 30.1299ZM45.5947 29.0771C46.0596 29.0771 46.4538 28.9678 46.7773 28.749C47.1009 28.5303 47.347 28.2158 47.5156 27.8057C47.6888 27.3955 47.7754 26.901 47.7754 26.3223V26.3086C47.7754 25.7253 47.6888 25.2285 47.5156 24.8184C47.347 24.4082 47.1009 24.096 46.7773 23.8818C46.4538 23.6631 46.0596 23.5537 45.5947 23.5537C45.1299 23.5537 44.7357 23.6631 44.4121 23.8818C44.0885 24.096 43.8402 24.4082 43.667 24.8184C43.4984 25.2285 43.4141 25.7253 43.4141 26.3086V26.3223C43.4141 26.901 43.4984 27.3955 43.667 27.8057C43.8402 28.2158 44.0885 28.5303 44.4121 28.749C44.7357 28.9678 45.1299 29.0771 45.5947 29.0771ZM54.0371 30.1367C53.2852 30.1367 52.654 29.9681 52.1436 29.6309C51.6331 29.2891 51.248 28.7855 50.9883 28.1201C50.7331 27.4548 50.6055 26.6299 50.6055 25.6455V25.6318C50.6055 24.652 50.6761 23.8112 50.8174 23.1094C50.9587 22.403 51.1774 21.8219 51.4736 21.3662C51.7744 20.9059 52.1595 20.5596 52.6289 20.3271C53.1029 20.0947 53.668 19.9626 54.3242 19.9307L55.0625 19.8965C55.3587 19.8828 55.6732 19.8464 56.0059 19.7871C56.3385 19.7233 56.6644 19.6276 56.9834 19.5V20.5527C56.8695 20.6621 56.637 20.7578 56.2861 20.8398C55.9352 20.9173 55.5456 20.9674 55.1172 20.9902L54.3652 21.0244C53.7956 21.0472 53.3239 21.1589 52.9502 21.3594C52.5811 21.5599 52.2917 21.8675 52.082 22.2822C51.8724 22.6969 51.722 23.2393 51.6309 23.9092L51.6104 24.0596H51.7197C51.8883 23.7633 52.0957 23.515 52.3418 23.3145C52.5879 23.1139 52.8682 22.9613 53.1826 22.8564C53.5016 22.7516 53.8457 22.6992 54.2148 22.6992C54.8757 22.6992 55.4499 22.8496 55.9375 23.1504C56.4251 23.4466 56.8011 23.8659 57.0654 24.4082C57.3343 24.9505 57.4688 25.5931 57.4688 26.3359V26.3496C57.4688 27.1289 57.3298 27.8034 57.0518 28.373C56.7783 28.9382 56.3841 29.3734 55.8691 29.6787C55.3587 29.984 54.748 30.1367 54.0371 30.1367ZM54.0371 29.084C54.5065 29.084 54.9053 28.9769 55.2334 28.7627C55.5661 28.5439 55.819 28.2318 55.9922 27.8262C56.1654 27.416 56.252 26.9238 56.252 26.3496V26.3359C56.252 25.7845 56.1654 25.3174 55.9922 24.9346C55.819 24.5518 55.5661 24.2601 55.2334 24.0596C54.9053 23.8545 54.5065 23.752 54.0371 23.752C53.5677 23.752 53.1667 23.8545 52.834 24.0596C52.5059 24.2601 52.2552 24.5518 52.082 24.9346C51.9089 25.3174 51.8223 25.7845 51.8223 26.3359V26.3496C51.8223 26.9238 51.9089 27.416 52.082 27.8262C52.2552 28.2318 52.5059 28.5439 52.834 28.7627C53.1667 28.9769 53.5677 29.084 54.0371 29.084ZM61.4746 30.1299C61.0098 30.1299 60.5905 30.041 60.2168 29.8633C59.8477 29.6855 59.5537 29.4326 59.335 29.1045C59.1208 28.7764 59.0137 28.389 59.0137 27.9424V27.9287C59.0137 27.4912 59.1185 27.1175 59.3281 26.8076C59.5378 26.4932 59.8431 26.2471 60.2441 26.0693C60.6452 25.8916 61.1305 25.7868 61.7002 25.7549L64.4072 25.5908V26.541L61.8438 26.7051C61.2832 26.737 60.873 26.8532 60.6133 27.0537C60.3581 27.2542 60.2305 27.5368 60.2305 27.9014V27.915C60.2305 28.2887 60.3717 28.5804 60.6543 28.79C60.9368 28.9951 61.2923 29.0977 61.7207 29.0977C62.1263 29.0977 62.4863 29.0179 62.8008 28.8584C63.1152 28.6943 63.3613 28.4733 63.5391 28.1953C63.7214 27.9173 63.8125 27.6029 63.8125 27.252V24.9551C63.8125 24.4993 63.6735 24.153 63.3955 23.916C63.1221 23.6745 62.7096 23.5537 62.1582 23.5537C61.7161 23.5537 61.3538 23.6335 61.0713 23.793C60.7887 23.9479 60.5996 24.1689 60.5039 24.4561L60.4971 24.4766H59.3076L59.3145 24.4355C59.3783 24.0482 59.5378 23.7109 59.793 23.4238C60.0527 23.1322 60.3877 22.9066 60.7979 22.7471C61.208 22.583 61.6751 22.501 62.1992 22.501C62.8008 22.501 63.3089 22.599 63.7236 22.7949C64.1429 22.9909 64.4596 23.2734 64.6738 23.6426C64.8926 24.0072 65.002 24.4447 65.002 24.9551V30H63.8125V28.9131H63.7031C63.5482 29.1729 63.359 29.3939 63.1357 29.5762C62.917 29.7585 62.6686 29.8975 62.3906 29.9932C62.1126 30.0843 61.8073 30.1299 61.4746 30.1299ZM67.3057 30V22.6309H70.4297C71.127 22.6309 71.6693 22.8063 72.0566 23.1572C72.444 23.5036 72.6377 23.9661 72.6377 24.5449V24.5586C72.6377 24.9232 72.5238 25.2581 72.2959 25.5635C72.068 25.8643 71.7809 26.0511 71.4346 26.124V26.2334C71.749 26.2744 72.0202 26.3724 72.248 26.5273C72.4759 26.6777 72.6514 26.8691 72.7744 27.1016C72.902 27.3294 72.9658 27.5869 72.9658 27.874V27.8877C72.9658 28.3115 72.8656 28.6829 72.665 29.002C72.4645 29.3164 72.1751 29.5625 71.7969 29.7402C71.4232 29.9134 70.972 30 70.4434 30H67.3057ZM68.4951 29.0156H70.3955C70.8467 29.0156 71.1862 28.9176 71.4141 28.7217C71.6419 28.5212 71.7559 28.2363 71.7559 27.8672V27.8535C71.7559 27.4616 71.6237 27.1768 71.3594 26.999C71.0951 26.8213 70.6986 26.7324 70.1699 26.7324H68.4951V29.0156ZM68.4951 25.748H70.0674C70.5459 25.748 70.8968 25.6569 71.1201 25.4746C71.3434 25.2923 71.4551 25.028 71.4551 24.6816V24.668C71.4551 24.3535 71.3594 24.1006 71.168 23.9092C70.9766 23.7132 70.6735 23.6152 70.2588 23.6152H68.4951V25.748ZM74.9756 30V22.6309H76.165V28.127H76.7939L75.9873 28.5645L79.918 22.6309H81.1074V30H79.918V24.5039H79.2891L80.0957 24.0664L76.165 30H74.9756ZM88.791 22.6309V23.6152H86.4053V30H85.2158V23.6152H82.8301V22.6309H88.791ZM90.5068 30V22.6309H91.6963V24.9961H93.1387C93.9818 24.9961 94.654 25.2217 95.1553 25.6729C95.6566 26.124 95.9072 26.7301 95.9072 27.4912V27.5049C95.9072 28.266 95.6566 28.8721 95.1553 29.3232C94.654 29.7744 93.9818 30 93.1387 30H90.5068ZM93.1387 25.9805H91.6963V29.0156H93.1387C93.6263 29.0156 94.0114 28.8789 94.2939 28.6055C94.5765 28.3275 94.7178 27.9606 94.7178 27.5049V27.4912C94.7178 27.0309 94.5742 26.6641 94.2871 26.3906C94.0046 26.1172 93.6217 25.9805 93.1387 25.9805ZM101.677 30V22.6309H104.801C105.498 22.6309 106.04 22.8063 106.428 23.1572C106.815 23.5036 107.009 23.9661 107.009 24.5449V24.5586C107.009 24.9232 106.895 25.2581 106.667 25.5635C106.439 25.8643 106.152 26.0511 105.806 26.124V26.2334C106.12 26.2744 106.391 26.3724 106.619 26.5273C106.847 26.6777 107.022 26.8691 107.146 27.1016C107.273 27.3294 107.337 27.5869 107.337 27.874V27.8877C107.337 28.3115 107.237 28.6829 107.036 29.002C106.836 29.3164 106.546 29.5625 106.168 29.7402C105.794 29.9134 105.343 30 104.814 30H101.677ZM102.866 29.0156H104.767C105.218 29.0156 105.557 28.9176 105.785 28.7217C106.013 28.5212 106.127 28.2363 106.127 27.8672V27.8535C106.127 27.4616 105.995 27.1768 105.73 26.999C105.466 26.8213 105.07 26.7324 104.541 26.7324H102.866V29.0156ZM102.866 25.748H104.438C104.917 25.748 105.268 25.6569 105.491 25.4746C105.715 25.2923 105.826 25.028 105.826 24.6816V24.668C105.826 24.3535 105.73 24.1006 105.539 23.9092C105.348 23.7132 105.045 23.6152 104.63 23.6152H102.866V25.748ZM113.284 30V22.6309H114.474V28.127H115.103L114.296 28.5645L118.227 22.6309H119.416V30H118.227V24.5039H117.598L118.404 24.0664L114.474 30H113.284ZM124.27 30.1367C123.745 30.1367 123.271 30.0547 122.848 29.8906C122.428 29.7266 122.087 29.4987 121.822 29.207C121.558 28.9108 121.401 28.5645 121.351 28.168L121.344 28.1133H122.554L122.567 28.168C122.645 28.4688 122.836 28.708 123.142 28.8857C123.447 29.0635 123.823 29.1523 124.27 29.1523C124.812 29.1523 125.236 29.0339 125.541 28.7969C125.846 28.5599 125.999 28.2591 125.999 27.8945V27.8809C125.999 27.4798 125.851 27.1859 125.555 26.999C125.263 26.8076 124.835 26.7119 124.27 26.7119H123.121V25.7275H124.27C124.743 25.7275 125.106 25.6341 125.356 25.4473C125.612 25.2559 125.739 24.9688 125.739 24.5859V24.5723C125.739 24.2578 125.618 23.998 125.377 23.793C125.14 23.5833 124.785 23.4785 124.311 23.4785C123.891 23.4785 123.536 23.5651 123.244 23.7383C122.952 23.9115 122.777 24.1462 122.718 24.4424L122.711 24.4766H121.549L121.556 24.4287C121.615 24.0322 121.765 23.6904 122.007 23.4033C122.253 23.1117 122.572 22.8883 122.964 22.7334C123.36 22.5739 123.809 22.4941 124.311 22.4941C124.862 22.4941 125.329 22.5785 125.712 22.7471C126.099 22.9157 126.393 23.1504 126.594 23.4512C126.799 23.7474 126.901 24.0915 126.901 24.4834V24.4971C126.901 24.8708 126.79 25.208 126.566 25.5088C126.343 25.8096 126.049 26.0033 125.685 26.0898V26.1992C126.008 26.2676 126.279 26.377 126.498 26.5273C126.721 26.6777 126.888 26.8623 126.997 27.0811C127.111 27.2998 127.168 27.5459 127.168 27.8193V27.833C127.168 28.2887 127.045 28.6898 126.799 29.0361C126.557 29.3825 126.218 29.6536 125.78 29.8496C125.347 30.041 124.844 30.1367 124.27 30.1367ZM132.145 30.1367C131.393 30.1367 130.761 29.9681 130.251 29.6309C129.741 29.2891 129.355 28.7855 129.096 28.1201C128.84 27.4548 128.713 26.6299 128.713 25.6455V25.6318C128.713 24.652 128.784 23.8112 128.925 23.1094C129.066 22.403 129.285 21.8219 129.581 21.3662C129.882 20.9059 130.267 20.5596 130.736 20.3271C131.21 20.0947 131.775 19.9626 132.432 19.9307L133.17 19.8965C133.466 19.8828 133.781 19.8464 134.113 19.7871C134.446 19.7233 134.772 19.6276 135.091 19.5V20.5527C134.977 20.6621 134.744 20.7578 134.394 20.8398C134.043 20.9173 133.653 20.9674 133.225 20.9902L132.473 21.0244C131.903 21.0472 131.431 21.1589 131.058 21.3594C130.688 21.5599 130.399 21.8675 130.189 22.2822C129.98 22.6969 129.829 23.2393 129.738 23.9092L129.718 24.0596H129.827C129.996 23.7633 130.203 23.515 130.449 23.3145C130.695 23.1139 130.976 22.9613 131.29 22.8564C131.609 22.7516 131.953 22.6992 132.322 22.6992C132.983 22.6992 133.557 22.8496 134.045 23.1504C134.533 23.4466 134.909 23.8659 135.173 24.4082C135.442 24.9505 135.576 25.5931 135.576 26.3359V26.3496C135.576 27.1289 135.437 27.8034 135.159 28.373C134.886 28.9382 134.492 29.3734 133.977 29.6787C133.466 29.984 132.855 30.1367 132.145 30.1367ZM132.145 29.084C132.614 29.084 133.013 28.9769 133.341 28.7627C133.674 28.5439 133.926 28.2318 134.1 27.8262C134.273 27.416 134.359 26.9238 134.359 26.3496V26.3359C134.359 25.7845 134.273 25.3174 134.1 24.9346C133.926 24.5518 133.674 24.2601 133.341 24.0596C133.013 23.8545 132.614 23.752 132.145 23.752C131.675 23.752 131.274 23.8545 130.941 24.0596C130.613 24.2601 130.363 24.5518 130.189 24.9346C130.016 25.3174 129.93 25.7845 129.93 26.3359V26.3496C129.93 26.9238 130.016 27.416 130.189 27.8262C130.363 28.2318 130.613 28.5439 130.941 28.7627C131.274 28.9769 131.675 29.084 132.145 29.084ZM137.559 32.4609V22.6309H138.748V23.8066H138.857C139.008 23.5332 139.197 23.3008 139.425 23.1094C139.653 22.9134 139.912 22.763 140.204 22.6582C140.496 22.5534 140.812 22.501 141.154 22.501C141.779 22.501 142.321 22.6605 142.781 22.9795C143.246 23.2939 143.606 23.736 143.861 24.3057C144.117 24.8753 144.244 25.543 144.244 26.3086V26.3223C144.244 27.0924 144.117 27.7624 143.861 28.332C143.606 28.9017 143.246 29.3438 142.781 29.6582C142.321 29.9727 141.779 30.1299 141.154 30.1299C140.817 30.1299 140.498 30.0775 140.197 29.9727C139.901 29.8633 139.637 29.7129 139.404 29.5215C139.176 29.3301 138.994 29.1022 138.857 28.8379H138.748V32.4609H137.559ZM140.881 29.0771C141.332 29.0771 141.717 28.9678 142.036 28.749C142.355 28.5257 142.599 28.209 142.768 27.7988C142.941 27.3841 143.027 26.8919 143.027 26.3223V26.3086C143.027 25.7344 142.941 25.2422 142.768 24.832C142.599 24.4219 142.355 24.1074 142.036 23.8887C141.717 23.6654 141.332 23.5537 140.881 23.5537C140.434 23.5537 140.049 23.6654 139.726 23.8887C139.402 24.112 139.154 24.4287 138.98 24.8389C138.807 25.249 138.721 25.7389 138.721 26.3086V26.3223C138.721 26.8874 138.807 27.3773 138.98 27.792C139.154 28.2021 139.402 28.5189 139.726 28.7422C140.049 28.9655 140.434 29.0771 140.881 29.0771ZM148.264 30.1299C147.799 30.1299 147.38 30.041 147.006 29.8633C146.637 29.6855 146.343 29.4326 146.124 29.1045C145.91 28.7764 145.803 28.389 145.803 27.9424V27.9287C145.803 27.4912 145.908 27.1175 146.117 26.8076C146.327 26.4932 146.632 26.2471 147.033 26.0693C147.434 25.8916 147.92 25.7868 148.489 25.7549L151.196 25.5908V26.541L148.633 26.7051C148.072 26.737 147.662 26.8532 147.402 27.0537C147.147 27.2542 147.02 27.5368 147.02 27.9014V27.915C147.02 28.2887 147.161 28.5804 147.443 28.79C147.726 28.9951 148.081 29.0977 148.51 29.0977C148.915 29.0977 149.275 29.0179 149.59 28.8584C149.904 28.6943 150.15 28.4733 150.328 28.1953C150.51 27.9173 150.602 27.6029 150.602 27.252V24.9551C150.602 24.4993 150.463 24.153 150.185 23.916C149.911 23.6745 149.499 23.5537 148.947 23.5537C148.505 23.5537 148.143 23.6335 147.86 23.793C147.578 23.9479 147.389 24.1689 147.293 24.4561L147.286 24.4766H146.097L146.104 24.4355C146.167 24.0482 146.327 23.7109 146.582 23.4238C146.842 23.1322 147.177 22.9066 147.587 22.7471C147.997 22.583 148.464 22.501 148.988 22.501C149.59 22.501 150.098 22.599 150.513 22.7949C150.932 22.9909 151.249 23.2734 151.463 23.6426C151.682 24.0072 151.791 24.4447 151.791 24.9551V30H150.602V28.9131H150.492C150.337 29.1729 150.148 29.3939 149.925 29.5762C149.706 29.7585 149.458 29.8975 149.18 29.9932C148.902 30.0843 148.596 30.1299 148.264 30.1299ZM158.935 30V26.6641H155.284V30H154.095V22.6309H155.284V25.6797H158.935V22.6309H160.124V30H158.935ZM167.302 30V26.6641H163.651V30H162.462V22.6309H163.651V25.6797H167.302V22.6309H168.491V30H167.302ZM173.864 30.1299C173.167 30.1299 172.563 29.9772 172.053 29.6719C171.547 29.362 171.155 28.9222 170.877 28.3525C170.604 27.7829 170.467 27.1061 170.467 26.3223V26.3086C170.467 25.5202 170.604 24.8411 170.877 24.2715C171.155 23.7018 171.547 23.2643 172.053 22.959C172.563 22.6536 173.167 22.501 173.864 22.501C174.566 22.501 175.17 22.6536 175.676 22.959C176.182 23.2643 176.571 23.7018 176.845 24.2715C177.123 24.8411 177.262 25.5202 177.262 26.3086V26.3223C177.262 27.1061 177.123 27.7829 176.845 28.3525C176.571 28.9222 176.182 29.362 175.676 29.6719C175.17 29.9772 174.566 30.1299 173.864 30.1299ZM173.864 29.0771C174.329 29.0771 174.723 28.9678 175.047 28.749C175.37 28.5303 175.617 28.2158 175.785 27.8057C175.958 27.3955 176.045 26.901 176.045 26.3223V26.3086C176.045 25.7253 175.958 25.2285 175.785 24.8184C175.617 24.4082 175.37 24.096 175.047 23.8818C174.723 23.6631 174.329 23.5537 173.864 23.5537C173.399 23.5537 173.005 23.6631 172.682 23.8818C172.358 24.096 172.11 24.4082 171.937 24.8184C171.768 25.2285 171.684 25.7253 171.684 26.3086V26.3223C171.684 26.901 171.768 27.3955 171.937 27.8057C172.11 28.2158 172.358 28.5303 172.682 28.749C173.005 28.9678 173.399 29.0771 173.864 29.0771ZM182.252 30.1299C181.55 30.1299 180.946 29.9749 180.44 29.665C179.939 29.3551 179.552 28.9176 179.278 28.3525C179.009 27.7829 178.875 27.113 178.875 26.3428V26.3359C178.875 25.5749 179.009 24.9072 179.278 24.333C179.552 23.7588 179.937 23.3099 180.434 22.9863C180.93 22.6628 181.511 22.501 182.177 22.501C182.847 22.501 183.421 22.6559 183.899 22.9658C184.382 23.2757 184.752 23.7087 185.007 24.2646C185.267 24.8161 185.396 25.4587 185.396 26.1924V26.6572H179.49V25.707H184.788L184.2 26.5752V26.1035C184.2 25.5247 184.114 25.0485 183.94 24.6748C183.767 24.3011 183.528 24.0231 183.223 23.8408C182.917 23.654 182.566 23.5605 182.17 23.5605C181.773 23.5605 181.418 23.6585 181.104 23.8545C180.794 24.0459 180.548 24.3307 180.365 24.709C180.183 25.0872 180.092 25.5521 180.092 26.1035V26.5752C180.092 27.0993 180.181 27.5482 180.358 27.9219C180.536 28.291 180.789 28.5758 181.117 28.7764C181.445 28.9723 181.833 29.0703 182.279 29.0703C182.612 29.0703 182.901 29.0247 183.147 28.9336C183.394 28.8424 183.596 28.7262 183.756 28.585C183.915 28.4437 184.027 28.3001 184.091 28.1543L184.118 28.0928H185.308L185.294 28.1475C185.23 28.3981 185.116 28.6419 184.952 28.8789C184.793 29.1113 184.585 29.3232 184.33 29.5146C184.075 29.7015 183.772 29.8519 183.421 29.9658C183.075 30.0752 182.685 30.1299 182.252 30.1299Z" fill="black"/>
<g clip-path="url(#clip0_437_653)">
<path d="M336 22.3616C336 27.0775 340.25 31.7158 346.964 35.7011C347.214 35.845 347.571 36 347.821 36C348.071 36 348.429 35.845 348.69 35.7011C355.393 31.7158 359.643 27.0775 359.643 22.3616C359.643 18.4428 356.75 15.6753 352.893 15.6753C350.69 15.6753 348.905 16.6494 347.821 18.1439C346.762 16.6605 344.952 15.6753 342.75 15.6753C338.893 15.6753 336 18.4428 336 22.3616ZM337.917 22.3616C337.917 19.417 339.964 17.4576 342.726 17.4576C344.964 17.4576 346.25 18.7528 347.012 19.8598C347.333 20.3026 347.536 20.4244 347.821 20.4244C348.107 20.4244 348.286 20.2915 348.631 19.8598C349.452 18.7749 350.69 17.4576 352.917 17.4576C355.679 17.4576 357.726 19.417 357.726 22.3616C357.726 26.4796 353.048 30.9188 348.071 33.9963C347.952 34.0738 347.869 34.1291 347.821 34.1291C347.774 34.1291 347.69 34.0738 347.583 33.9963C342.595 30.9188 337.917 26.4796 337.917 22.3616Z" fill="black" fill-opacity="0.85"/>
</g>
<line x1="336.5" y1="39" x2="336.5" y2="48" stroke="#FF4E4E"/>
<line x1="336" y1="43" x2="344" y2="43" stroke="#FF4E4E"/>
<path d="M344.356 45.5V45.0044L345.492 43.8838C345.658 43.7243 345.786 43.5933 345.877 43.4907C345.969 43.3866 346.032 43.2962 346.068 43.2197C346.104 43.1416 346.122 43.061 346.122 42.978V42.9707C346.122 42.8698 346.1 42.7811 346.056 42.7046C346.013 42.6281 345.951 42.5687 345.87 42.5264C345.789 42.4824 345.692 42.4604 345.58 42.4604C345.466 42.4604 345.365 42.4849 345.277 42.5337C345.189 42.5809 345.121 42.6468 345.072 42.7314C345.023 42.8145 344.999 42.9121 344.999 43.0244V43.0366H344.317L344.315 43.0244C344.315 42.7998 344.369 42.6021 344.479 42.4312C344.589 42.2603 344.741 42.1268 344.935 42.0308C345.13 41.9347 345.357 41.8867 345.614 41.8867C345.856 41.8867 346.069 41.9299 346.253 42.0161C346.439 42.1024 346.584 42.222 346.688 42.375C346.794 42.528 346.847 42.7062 346.847 42.9097V42.917C346.847 43.0505 346.821 43.1815 346.769 43.3101C346.716 43.437 346.629 43.5745 346.505 43.7227C346.381 43.8708 346.212 44.0441 345.997 44.2427L345.147 45.0361L345.345 44.7139V45.0361L345.147 44.9067H346.898V45.5H344.356ZM349.173 45.5V44.853H347.447V44.2744C347.537 44.1149 347.627 43.957 347.718 43.8008C347.809 43.6429 347.901 43.4867 347.994 43.332C348.089 43.1758 348.182 43.022 348.275 42.8706C348.369 42.7176 348.464 42.5671 348.558 42.4189C348.653 42.2692 348.747 42.1219 348.841 41.9771H349.876V44.2622H350.335V44.853H349.876V45.5H349.173ZM348.111 44.2817H349.188V42.5361H349.149C349.081 42.6419 349.011 42.7502 348.939 42.8608C348.869 42.9715 348.798 43.0846 348.727 43.2002C348.657 43.3158 348.586 43.4321 348.514 43.5493C348.444 43.6649 348.375 43.7812 348.307 43.8984C348.24 44.014 348.175 44.1287 348.111 44.2427V44.2817Z" fill="black"/>
<line x1="351" y1="43" x2="359" y2="43" stroke="#FF4E4E"/>
<line x1="359.5" y1="39" x2="359.5" y2="48" stroke="#FF4E4E"/>
<line x1="360.5" y1="21" x2="360.5" y2="30" stroke="#FF4E4E"/>
<line x1="360" y1="25" x2="364.5" y2="25" stroke="#FF4E4E"/>
<path d="M365.718 27.5V24.6729H365.674L364.81 25.2734V24.6094L365.721 23.9771H366.456V27.5H365.718ZM369.048 27.5V26.853H367.322V26.2744C367.412 26.1149 367.502 25.957 367.593 25.8008C367.684 25.6429 367.776 25.4867 367.869 25.332C367.964 25.1758 368.057 25.022 368.15 24.8706C368.244 24.7176 368.339 24.5671 368.433 24.4189C368.528 24.2692 368.622 24.1219 368.716 23.9771H369.751V26.2622H370.21V26.853H369.751V27.5H369.048ZM367.986 26.2817H369.063V24.5361H369.024C368.956 24.6419 368.886 24.7502 368.814 24.8608C368.744 24.9715 368.673 25.0846 368.602 25.2002C368.532 25.3158 368.461 25.4321 368.389 25.5493C368.319 25.6649 368.25 25.7812 368.182 25.8984C368.115 26.014 368.05 26.1287 367.986 26.2427V26.2817Z" fill="black"/>
<line x1="370.5" y1="25" x2="375" y2="25" stroke="#FF4E4E"/>
<line x1="375.5" y1="21" x2="375.5" y2="30" stroke="#FF4E4E"/>
<line x1="15.5" y1="21" x2="15.5" y2="30" stroke="#FF4E4E"/>
<line x1="15" y1="25" x2="19.5" y2="25" stroke="#FF4E4E"/>
<path d="M20.7183 27.5V24.6729H20.6743L19.8101 25.2734V24.6094L20.7207 23.9771H21.4556V27.5H20.7183ZM23.8188 27.5903C23.6138 27.5903 23.4233 27.5537 23.2476 27.4805C23.0718 27.4072 22.9172 27.2957 22.7837 27.146C22.6519 26.9963 22.5485 26.8075 22.4736 26.5796C22.4004 26.3517 22.3638 26.0824 22.3638 25.7715V25.7666C22.3638 25.3743 22.4224 25.0382 22.5396 24.7583C22.6584 24.4767 22.8268 24.2611 23.0449 24.1113C23.263 23.9616 23.5218 23.8867 23.8213 23.8867C24.0492 23.8867 24.2542 23.9282 24.4365 24.0112C24.6188 24.0942 24.7686 24.2074 24.8857 24.3506C25.0046 24.4938 25.0819 24.6574 25.1177 24.8413L25.1226 24.8657H24.4023L24.3926 24.8438C24.3649 24.7689 24.3242 24.7046 24.2705 24.6509C24.2184 24.5955 24.1549 24.5524 24.0801 24.5215C24.0052 24.4906 23.9198 24.4751 23.8237 24.4751C23.6545 24.4751 23.5153 24.5256 23.4062 24.6265C23.2972 24.7274 23.215 24.8641 23.1597 25.0366C23.106 25.2091 23.0742 25.402 23.0645 25.6152C23.0628 25.6396 23.062 25.6641 23.062 25.6885C23.062 25.7113 23.062 25.7357 23.062 25.7617L23.1719 26.3501C23.1719 26.4738 23.2004 26.5853 23.2573 26.6846C23.3143 26.7839 23.3916 26.8628 23.4893 26.9214C23.5869 26.9784 23.6951 27.0068 23.814 27.0068C23.9328 27.0068 24.0402 26.9784 24.1362 26.9214C24.2339 26.8644 24.3112 26.7879 24.3682 26.6919C24.4268 26.5942 24.4561 26.4852 24.4561 26.3647V26.3599C24.4561 26.2362 24.4284 26.1271 24.373 26.0327C24.3177 25.9367 24.242 25.861 24.146 25.8057C24.0516 25.7503 23.9425 25.7227 23.8188 25.7227C23.6984 25.7227 23.5894 25.7495 23.4917 25.8032C23.394 25.8569 23.3159 25.931 23.2573 26.0254C23.2004 26.1182 23.1719 26.2256 23.1719 26.3477V26.3501H23.0254V25.6958H23.1108C23.1548 25.6047 23.2166 25.52 23.2964 25.4419C23.3761 25.3638 23.4762 25.3011 23.5967 25.2539C23.7171 25.2051 23.8579 25.1807 24.019 25.1807C24.2485 25.1807 24.4495 25.2303 24.6221 25.3296C24.7946 25.4289 24.9289 25.5656 25.0249 25.7397C25.1209 25.9139 25.1689 26.1125 25.1689 26.3354V26.3403C25.1689 26.5796 25.1112 26.7936 24.9956 26.9824C24.8817 27.1712 24.723 27.3201 24.5195 27.4292C24.3177 27.5366 24.0841 27.5903 23.8188 27.5903Z" fill="black"/>
<line x1="25.5" y1="25" x2="30" y2="25" stroke="#FF4E4E"/>
<line x1="30.5" y1="21" x2="30.5" y2="30" stroke="#FF4E4E"/>
<rect x="336.5" y="14.5" width="23" height="23" stroke="#00A3FF"/>
<rect x="-0.5" y="0.5" width="304" height="16" transform="matrix(-1 0 0 1 335 17)" stroke="#00A3FF"/>
<line x1="324" y1="15.5" x2="333" y2="15.5" stroke="#FF4E4E"/>
<line x1="328" y1="24" x2="328" y2="16" stroke="#FF4E4E"/>
<path d="M325.546 29V28.5044L326.681 27.3838C326.847 27.2243 326.976 27.0933 327.067 26.9907C327.158 26.8866 327.222 26.7962 327.257 26.7197C327.293 26.6416 327.311 26.561 327.311 26.478V26.4707C327.311 26.3698 327.289 26.2811 327.245 26.2046C327.203 26.1281 327.141 26.0687 327.06 26.0264C326.978 25.9824 326.881 25.9604 326.769 25.9604C326.655 25.9604 326.554 25.9849 326.466 26.0337C326.378 26.0809 326.31 26.1468 326.261 26.2314C326.212 26.3145 326.188 26.4121 326.188 26.5244V26.5366H325.507L325.504 26.5244C325.504 26.2998 325.559 26.1021 325.668 25.9312C325.779 25.7603 325.931 25.6268 326.125 25.5308C326.32 25.4347 326.546 25.3867 326.803 25.3867C327.046 25.3867 327.259 25.4299 327.443 25.5161C327.628 25.6024 327.773 25.722 327.877 25.875C327.983 26.028 328.036 26.2062 328.036 26.4097V26.417C328.036 26.5505 328.01 26.6815 327.958 26.8101C327.906 26.937 327.818 27.0745 327.694 27.2227C327.571 27.3708 327.401 27.5441 327.187 27.7427L326.337 28.5361L326.535 28.2139V28.5361L326.337 28.4067H328.087V29H325.546ZM330.363 29V28.353H328.637V27.7744C328.726 27.6149 328.817 27.457 328.908 27.3008C328.999 27.1429 329.091 26.9867 329.184 26.832C329.278 26.6758 329.372 26.522 329.464 26.3706C329.559 26.2176 329.653 26.0671 329.748 25.9189C329.842 25.7692 329.936 25.6219 330.031 25.4771H331.066V27.7622H331.525V28.353H331.066V29H330.363ZM329.301 27.7817H330.377V26.0361H330.338C330.27 26.1419 330.2 26.2502 330.128 26.3608C330.058 26.4715 329.988 26.5846 329.916 26.7002C329.846 26.8158 329.775 26.9321 329.704 27.0493C329.634 27.1649 329.564 27.2812 329.496 27.3984C329.429 27.514 329.364 27.6287 329.301 27.7427V27.7817Z" fill="black"/>
<line x1="328" y1="38" x2="328" y2="30" stroke="#FF4E4E"/>
<line x1="324" y1="37.5" x2="333" y2="37.5" stroke="#FF4E4E"/>
<line x1="258" y1="1.5" x2="267" y2="1.5" stroke="#FF4E4E"/>
<line x1="262" y1="6.5" x2="262" y2="2" stroke="#FF4E4E"/>
<path d="M261.157 11.0703V10.4282H263.843V11.0703H261.157ZM261.157 9.7251V9.08301H263.843V9.7251H261.157Z" fill="black"/>
<line x1="262" y1="17" x2="262" y2="12.5" stroke="#FF4E4E"/>
<line x1="258" y1="16.5" x2="267" y2="16.5" stroke="#FF4E4E"/>
<line x1="258" y1="34.5" x2="267" y2="34.5" stroke="#FF4E4E"/>
<line x1="262" y1="39.5" x2="262" y2="35" stroke="#FF4E4E"/>
<path d="M261.157 44.0703V43.4282H263.843V44.0703H261.157ZM261.157 42.7251V42.083H263.843V42.7251H261.157Z" fill="black"/>
<line x1="262" y1="50" x2="262" y2="45.5" stroke="#FF4E4E"/>
<line x1="258" y1="49.5" x2="267" y2="49.5" stroke="#FF4E4E"/>
<line x1="3" y1="1.5" x2="12" y2="1.5" stroke="#FF4E4E"/>
<line x1="7" y1="23" x2="7" y2="2" stroke="#FF4E4E"/>
<path d="M6.06201 28V27.353H4.33594V26.7744C4.42546 26.6149 4.51579 26.457 4.60693 26.3008C4.69808 26.1429 4.79004 25.9867 4.88281 25.832C4.97721 25.6758 5.0708 25.522 5.16357 25.3706C5.25798 25.2176 5.35238 25.0671 5.44678 24.9189C5.54118 24.7692 5.63558 24.6219 5.72998 24.4771H6.76514V26.7622H7.22412V27.353H6.76514V28H6.06201ZM5 26.7817H6.07666V25.0361H6.0376C5.96924 25.1419 5.89925 25.2502 5.82764 25.3608C5.75765 25.4715 5.68685 25.5846 5.61523 25.7002C5.54525 25.8158 5.47445 25.9321 5.40283 26.0493C5.33285 26.1649 5.26367 26.2812 5.19531 26.3984C5.12858 26.514 5.06348 26.6287 5 26.7427V26.7817ZM9.16992 24.3843C9.37337 24.3843 9.56299 24.4217 9.73877 24.4966C9.91618 24.5698 10.0708 24.6813 10.2026 24.8311C10.3361 24.9792 10.4395 25.168 10.5127 25.3975C10.5876 25.6253 10.625 25.8939 10.625 26.2031V26.208C10.625 26.6019 10.5656 26.9388 10.4468 27.2188C10.3296 27.4987 10.1619 27.7135 9.94385 27.8633C9.72575 28.013 9.46615 28.0879 9.16504 28.0879C8.9388 28.0879 8.73454 28.0472 8.55225 27.9658C8.36995 27.8828 8.2194 27.7697 8.10059 27.6265C7.9834 27.4816 7.90609 27.3172 7.86865 27.1333L7.86377 27.1113H8.58643L8.59375 27.1333C8.62305 27.2049 8.66374 27.2692 8.71582 27.3262C8.76953 27.3815 8.83382 27.4246 8.90869 27.4556C8.98356 27.4865 9.0682 27.502 9.1626 27.502C9.3335 27.502 9.47347 27.4515 9.58252 27.3506C9.69157 27.248 9.77376 27.1105 9.8291 26.938C9.88444 26.7655 9.91618 26.5726 9.92432 26.3594C9.92594 26.335 9.92676 26.3105 9.92676 26.2861C9.92676 26.2617 9.92676 26.2381 9.92676 26.2153L9.81445 25.6245C9.81445 25.5008 9.78597 25.3901 9.729 25.2925C9.67204 25.1932 9.59554 25.1151 9.49951 25.0581C9.40348 24.9995 9.29525 24.9702 9.1748 24.9702C9.05599 24.9702 8.94775 24.9987 8.8501 25.0557C8.75407 25.111 8.67676 25.1875 8.61816 25.2852C8.5612 25.3812 8.53271 25.4894 8.53271 25.6099V25.6147C8.53271 25.7384 8.56038 25.8483 8.61572 25.9443C8.67106 26.0404 8.74674 26.116 8.84277 26.1714C8.9388 26.2251 9.04785 26.252 9.16992 26.252C9.29199 26.252 9.40104 26.2259 9.49707 26.1738C9.59473 26.1201 9.67204 26.0461 9.729 25.9517C9.78597 25.8573 9.81445 25.7498 9.81445 25.6294V25.6245H9.96094V26.2812H9.87549C9.8348 26.3708 9.77376 26.4554 9.69238 26.5352C9.61263 26.6133 9.51253 26.6768 9.39209 26.7256C9.27165 26.7728 9.13005 26.7964 8.96729 26.7964C8.73942 26.7964 8.53923 26.7467 8.3667 26.6475C8.19417 26.5465 8.0599 26.409 7.96387 26.2349C7.86784 26.0607 7.81982 25.863 7.81982 25.6416V25.6367C7.81982 25.3958 7.87679 25.181 7.99072 24.9922C8.10628 24.8034 8.26579 24.6553 8.46924 24.5479C8.67269 24.4388 8.90625 24.3843 9.16992 24.3843Z" fill="white"/>
<line x1="7" y1="50" x2="7" y2="29" stroke="#FF4E4E"/>
<line x1="3" y1="49.5" x2="12" y2="49.5" stroke="#FF4E4E"/>
<path d="M15 17C15 8.16344 22.1634 1 31 1" stroke="#FF4E4E"/>
<path d="M16.2183 16V13.1729H16.1743L15.3101 13.7734V13.1094L16.2207 12.4771H16.9556V16H16.2183ZM19.3188 16.0903C19.1138 16.0903 18.9233 16.0537 18.7476 15.9805C18.5718 15.9072 18.4172 15.7957 18.2837 15.646C18.1519 15.4963 18.0485 15.3075 17.9736 15.0796C17.9004 14.8517 17.8638 14.5824 17.8638 14.2715V14.2666C17.8638 13.8743 17.9224 13.5382 18.0396 13.2583C18.1584 12.9767 18.3268 12.7611 18.5449 12.6113C18.763 12.4616 19.0218 12.3867 19.3213 12.3867C19.5492 12.3867 19.7542 12.4282 19.9365 12.5112C20.1188 12.5942 20.2686 12.7074 20.3857 12.8506C20.5046 12.9938 20.5819 13.1574 20.6177 13.3413L20.6226 13.3657H19.9023L19.8926 13.3438C19.8649 13.2689 19.8242 13.2046 19.7705 13.1509C19.7184 13.0955 19.6549 13.0524 19.5801 13.0215C19.5052 12.9906 19.4198 12.9751 19.3237 12.9751C19.1545 12.9751 19.0153 13.0256 18.9062 13.1265C18.7972 13.2274 18.715 13.3641 18.6597 13.5366C18.606 13.7091 18.5742 13.902 18.5645 14.1152C18.5628 14.1396 18.562 14.1641 18.562 14.1885C18.562 14.2113 18.562 14.2357 18.562 14.2617L18.6719 14.8501C18.6719 14.9738 18.7004 15.0853 18.7573 15.1846C18.8143 15.2839 18.8916 15.3628 18.9893 15.4214C19.0869 15.4784 19.1951 15.5068 19.314 15.5068C19.4328 15.5068 19.5402 15.4784 19.6362 15.4214C19.7339 15.3644 19.8112 15.2879 19.8682 15.1919C19.9268 15.0942 19.9561 14.9852 19.9561 14.8647V14.8599C19.9561 14.7362 19.9284 14.6271 19.873 14.5327C19.8177 14.4367 19.742 14.361 19.646 14.3057C19.5516 14.2503 19.4425 14.2227 19.3188 14.2227C19.1984 14.2227 19.0894 14.2495 18.9917 14.3032C18.894 14.3569 18.8159 14.431 18.7573 14.5254C18.7004 14.6182 18.6719 14.7256 18.6719 14.8477V14.8501H18.5254V14.1958H18.6108C18.6548 14.1047 18.7166 14.02 18.7964 13.9419C18.8761 13.8638 18.9762 13.8011 19.0967 13.7539C19.2171 13.7051 19.3579 13.6807 19.519 13.6807C19.7485 13.6807 19.9495 13.7303 20.1221 13.8296C20.2946 13.9289 20.4289 14.0656 20.5249 14.2397C20.6209 14.4139 20.6689 14.6125 20.6689 14.8354V14.8403C20.6689 15.0796 20.6112 15.2936 20.4956 15.4824C20.3817 15.6712 20.223 15.8201 20.0195 15.9292C19.8177 16.0366 19.5841 16.0903 19.3188 16.0903Z" fill="black"/>
<defs>
<clipPath id="clip0_437_653">
<rect width="24" height="21" fill="white" transform="translate(336 15)"/>
</clipPath>
</defs>
</svg>
