<svg width="380" height="42" viewBox="0 0 380 42" fill="none" xmlns="http://www.w3.org/2000/svg">
<rect x="19" y="1" width="361" height="41" rx="12" fill="#EBEBEB"/>
<path d="M44.0645 26H42.834V17.2432H37.5566V26H36.3262V16.1357H44.0645V26ZM46.5664 28.4609V18.6309H47.7559V19.8066H47.8652C48.0156 19.5332 48.2048 19.3008 48.4326 19.1094C48.6605 18.9134 48.9202 18.763 49.2119 18.6582C49.5036 18.5534 49.8203 18.501 50.1621 18.501C50.7865 18.501 51.3288 18.6605 51.7891 18.9795C52.2539 19.2939 52.6139 19.736 52.8691 20.3057C53.1243 20.8753 53.252 21.543 53.252 22.3086V22.3223C53.252 23.0924 53.1243 23.7624 52.8691 24.332C52.6139 24.9017 52.2539 25.3438 51.7891 25.6582C51.3288 25.9727 50.7865 26.1299 50.1621 26.1299C49.8249 26.1299 49.5059 26.0775 49.2051 25.9727C48.9089 25.8633 48.6445 25.7129 48.4121 25.5215C48.1842 25.3301 48.002 25.1022 47.8652 24.8379H47.7559V28.4609H46.5664ZM49.8887 25.0771C50.3398 25.0771 50.7249 24.9678 51.0439 24.749C51.363 24.5257 51.6068 24.209 51.7754 23.7988C51.9486 23.3841 52.0352 22.8919 52.0352 22.3223V22.3086C52.0352 21.7344 51.9486 21.2422 51.7754 20.832C51.6068 20.4219 51.363 20.1074 51.0439 19.8887C50.7249 19.6654 50.3398 19.5537 49.8887 19.5537C49.4421 19.5537 49.057 19.6654 48.7334 19.8887C48.4098 20.112 48.1615 20.4287 47.9883 20.8389C47.8151 21.249 47.7285 21.7389 47.7285 22.3086V22.3223C47.7285 22.8874 47.8151 23.3773 47.9883 23.792C48.1615 24.2021 48.4098 24.5189 48.7334 24.7422C49.057 24.9655 49.4421 25.0771 49.8887 25.0771ZM58.2764 26.1299C57.5791 26.1299 56.9753 25.9772 56.4648 25.6719C55.959 25.362 55.5671 24.9222 55.2891 24.3525C55.0156 23.7829 54.8789 23.1061 54.8789 22.3223V22.3086C54.8789 21.5202 55.0156 20.8411 55.2891 20.2715C55.5671 19.7018 55.959 19.2643 56.4648 18.959C56.9753 18.6536 57.5791 18.501 58.2764 18.501C58.9782 18.501 59.582 18.6536 60.0879 18.959C60.5938 19.2643 60.9834 19.7018 61.2568 20.2715C61.5348 20.8411 61.6738 21.5202 61.6738 22.3086V22.3223C61.6738 23.1061 61.5348 23.7829 61.2568 24.3525C60.9834 24.9222 60.5938 25.362 60.0879 25.6719C59.582 25.9772 58.9782 26.1299 58.2764 26.1299ZM58.2764 25.0771C58.7412 25.0771 59.1354 24.9678 59.459 24.749C59.7826 24.5303 60.0286 24.2158 60.1973 23.8057C60.3704 23.3955 60.457 22.901 60.457 22.3223V22.3086C60.457 21.7253 60.3704 21.2285 60.1973 20.8184C60.0286 20.4082 59.7826 20.096 59.459 19.8818C59.1354 19.6631 58.7412 19.5537 58.2764 19.5537C57.8115 19.5537 57.4173 19.6631 57.0938 19.8818C56.7702 20.096 56.5218 20.4082 56.3486 20.8184C56.18 21.2285 56.0957 21.7253 56.0957 22.3086V22.3223C56.0957 22.901 56.18 23.3955 56.3486 23.8057C56.5218 24.2158 56.7702 24.5303 57.0938 24.749C57.4173 24.9678 57.8115 25.0771 58.2764 25.0771ZM64.8389 26H63.6494V18.6309H65.0918L67.7168 24.3457H67.8262L70.4648 18.6309H71.8457V26H70.6562V20.7568H70.5264L68.2021 25.7949H67.2861L64.9688 20.7568H64.8389V26ZM77.2256 26.1299C76.5283 26.1299 75.9245 25.9772 75.4141 25.6719C74.9082 25.362 74.5163 24.9222 74.2383 24.3525C73.9648 23.7829 73.8281 23.1061 73.8281 22.3223V22.3086C73.8281 21.5202 73.9648 20.8411 74.2383 20.2715C74.5163 19.7018 74.9082 19.2643 75.4141 18.959C75.9245 18.6536 76.5283 18.501 77.2256 18.501C77.9274 18.501 78.5312 18.6536 79.0371 18.959C79.543 19.2643 79.9326 19.7018 80.2061 20.2715C80.484 20.8411 80.623 21.5202 80.623 22.3086V22.3223C80.623 23.1061 80.484 23.7829 80.2061 24.3525C79.9326 24.9222 79.543 25.362 79.0371 25.6719C78.5312 25.9772 77.9274 26.1299 77.2256 26.1299ZM77.2256 25.0771C77.6904 25.0771 78.0846 24.9678 78.4082 24.749C78.7318 24.5303 78.9779 24.2158 79.1465 23.8057C79.3197 23.3955 79.4062 22.901 79.4062 22.3223V22.3086C79.4062 21.7253 79.3197 21.2285 79.1465 20.8184C78.9779 20.4082 78.7318 20.096 78.4082 19.8818C78.0846 19.6631 77.6904 19.5537 77.2256 19.5537C76.7607 19.5537 76.3665 19.6631 76.043 19.8818C75.7194 20.096 75.471 20.4082 75.2979 20.8184C75.1292 21.2285 75.0449 21.7253 75.0449 22.3086V22.3223C75.0449 22.901 75.1292 23.3955 75.2979 23.8057C75.471 24.2158 75.7194 24.5303 76.043 24.749C76.3665 24.9678 76.7607 25.0771 77.2256 25.0771ZM84.1641 22.6436H83.7881V26H82.5986V18.6309H83.7881V21.7139H84.1641L87.0146 18.6309H88.4434L85.0322 22.2061V21.9941L88.5732 26H87.0488L84.1641 22.6436ZM92.9072 26.1299C92.21 26.1299 91.6061 25.9772 91.0957 25.6719C90.5898 25.362 90.1979 24.9222 89.9199 24.3525C89.6465 23.7829 89.5098 23.1061 89.5098 22.3223V22.3086C89.5098 21.5202 89.6465 20.8411 89.9199 20.2715C90.1979 19.7018 90.5898 19.2643 91.0957 18.959C91.6061 18.6536 92.21 18.501 92.9072 18.501C93.609 18.501 94.2129 18.6536 94.7188 18.959C95.2246 19.2643 95.6143 19.7018 95.8877 20.2715C96.1657 20.8411 96.3047 21.5202 96.3047 22.3086V22.3223C96.3047 23.1061 96.1657 23.7829 95.8877 24.3525C95.6143 24.9222 95.2246 25.362 94.7188 25.6719C94.2129 25.9772 93.609 26.1299 92.9072 26.1299ZM92.9072 25.0771C93.3721 25.0771 93.7663 24.9678 94.0898 24.749C94.4134 24.5303 94.6595 24.2158 94.8281 23.8057C95.0013 23.3955 95.0879 22.901 95.0879 22.3223V22.3086C95.0879 21.7253 95.0013 21.2285 94.8281 20.8184C94.6595 20.4082 94.4134 20.096 94.0898 19.8818C93.7663 19.6631 93.3721 19.5537 92.9072 19.5537C92.4424 19.5537 92.0482 19.6631 91.7246 19.8818C91.401 20.096 91.1527 20.4082 90.9795 20.8184C90.8109 21.2285 90.7266 21.7253 90.7266 22.3086V22.3223C90.7266 22.901 90.8109 23.3955 90.9795 23.8057C91.1527 24.2158 91.401 24.5303 91.7246 24.749C92.0482 24.9678 92.4424 25.0771 92.9072 25.0771ZM98.3828 27.9482H97.2754V25.0156H97.8906C98.1595 24.8379 98.3646 24.5394 98.5059 24.1201C98.6471 23.6963 98.7337 23.236 98.7656 22.7393L99.0527 18.6309H104.077V25.0156H105.253V27.9482H104.146V26H98.3828V27.9482ZM102.888 25.0156V19.6152H100.105L99.873 22.7666C99.8411 23.2132 99.7751 23.6257 99.6748 24.0039C99.5745 24.3776 99.4378 24.6784 99.2646 24.9062V25.0156H102.888Z" fill="black"/>
<path d="M259.37 26.2324C258.8 26.2324 258.315 26.1253 257.914 25.9111C257.513 25.6924 257.201 25.3962 256.978 25.0225C256.759 24.6488 256.631 24.2272 256.595 23.7578L256.588 23.6621H257.818L257.825 23.7305C257.853 23.9766 257.925 24.2044 258.044 24.4141C258.162 24.6191 258.331 24.7855 258.55 24.9131C258.769 25.0361 259.04 25.0977 259.363 25.0977C259.91 25.0977 260.327 24.9404 260.614 24.626C260.901 24.307 261.045 23.8467 261.045 23.2451V16.1357H262.275V23.2588C262.275 24.193 262.018 24.9222 261.503 25.4463C260.993 25.9704 260.282 26.2324 259.37 26.2324ZM263.8 26L267.437 16.1357H268.38V17.7285H267.99L265.092 26H263.8ZM265.447 23.1768L265.83 22.1309H270.287L270.67 23.1768H265.447ZM270.998 26L268.1 17.7285V16.1357H268.653L272.29 26H270.998ZM277.253 26.2324C276.533 26.2324 275.904 26.1162 275.366 25.8838C274.833 25.6468 274.409 25.3232 274.095 24.9131C273.785 24.4984 273.605 24.0244 273.555 23.4912L273.548 23.416H274.778L274.785 23.4912C274.817 23.8193 274.942 24.1042 275.161 24.3457C275.384 24.5827 275.681 24.7673 276.05 24.8994C276.424 25.0316 276.847 25.0977 277.321 25.0977C277.768 25.0977 278.164 25.027 278.511 24.8857C278.862 24.7399 279.137 24.5394 279.338 24.2842C279.538 24.029 279.639 23.735 279.639 23.4023V23.3955C279.639 22.9854 279.488 22.6413 279.188 22.3633C278.887 22.0807 278.397 21.8643 277.718 21.7139L276.624 21.4746C275.635 21.2559 274.915 20.9186 274.464 20.4629C274.017 20.0026 273.794 19.4147 273.794 18.6992V18.6924C273.799 18.1455 273.947 17.6624 274.238 17.2432C274.535 16.8239 274.942 16.4958 275.462 16.2588C275.986 16.0218 276.588 15.9033 277.267 15.9033C277.923 15.9033 278.504 16.0218 279.01 16.2588C279.516 16.4912 279.917 16.8057 280.213 17.2021C280.514 17.5986 280.68 18.043 280.712 18.5352L280.719 18.6309H279.488L279.475 18.542C279.429 18.2503 279.311 17.9928 279.119 17.7695C278.928 17.5417 278.673 17.3617 278.354 17.2295C278.035 17.0973 277.661 17.0335 277.232 17.0381C276.822 17.0381 276.453 17.1019 276.125 17.2295C275.797 17.3571 275.535 17.5417 275.339 17.7832C275.147 18.0202 275.052 18.3118 275.052 18.6582V18.665C275.052 19.057 275.198 19.3874 275.489 19.6562C275.781 19.9251 276.262 20.1325 276.932 20.2783L278.025 20.5244C279.055 20.7523 279.791 21.0827 280.233 21.5156C280.675 21.9486 280.896 22.5205 280.896 23.2314V23.2383C280.896 23.8535 280.746 24.3844 280.445 24.8311C280.145 25.2777 279.721 25.624 279.174 25.8701C278.627 26.1117 277.987 26.2324 277.253 26.2324ZM282.947 26V16.1357H286.331C287.306 16.1357 288.14 16.3317 288.833 16.7236C289.53 17.111 290.063 17.6715 290.433 18.4053C290.802 19.139 290.986 20.0231 290.986 21.0576V21.0713C290.986 22.1058 290.802 22.9922 290.433 23.7305C290.063 24.4642 289.533 25.027 288.84 25.4189C288.147 25.8063 287.311 26 286.331 26H282.947ZM284.178 24.8926H286.249C286.983 24.8926 287.609 24.7422 288.129 24.4414C288.648 24.1406 289.045 23.7054 289.318 23.1357C289.592 22.5661 289.729 21.8825 289.729 21.085V21.0713C289.729 20.2692 289.59 19.5833 289.312 19.0137C289.038 18.4395 288.642 18.002 288.122 17.7012C287.603 17.3958 286.978 17.2432 286.249 17.2432H284.178V24.8926ZM294.213 22.7051L294.145 20.9277H294.459L298.779 16.1357H300.324L296.243 20.5449L295.669 21.0986L294.213 22.7051ZM293.119 26V16.1357H294.35V26H293.119ZM299.094 26L295.409 21.085L296.257 20.2305L300.687 26H299.094ZM301.562 26L305.198 16.1357H306.142V17.7285H305.752L302.854 26H301.562ZM303.209 23.1768L303.592 22.1309H308.049L308.432 23.1768H303.209ZM308.76 26L305.861 17.7285V16.1357H306.415L310.052 26H308.76ZM313.894 26.2324C313.324 26.2324 312.839 26.1253 312.438 25.9111C312.036 25.6924 311.724 25.3962 311.501 25.0225C311.282 24.6488 311.155 24.2272 311.118 23.7578L311.111 23.6621H312.342L312.349 23.7305C312.376 23.9766 312.449 24.2044 312.567 24.4141C312.686 24.6191 312.854 24.7855 313.073 24.9131C313.292 25.0361 313.563 25.0977 313.887 25.0977C314.434 25.0977 314.851 24.9404 315.138 24.626C315.425 24.307 315.568 23.8467 315.568 23.2451V16.1357H316.799V23.2588C316.799 24.193 316.541 24.9222 316.026 25.4463C315.516 25.9704 314.805 26.2324 313.894 26.2324ZM322.548 26.2324C321.828 26.2324 321.199 26.1162 320.661 25.8838C320.128 25.6468 319.704 25.3232 319.39 24.9131C319.08 24.4984 318.9 24.0244 318.85 23.4912L318.843 23.416H320.073L320.08 23.4912C320.112 23.8193 320.237 24.1042 320.456 24.3457C320.679 24.5827 320.976 24.7673 321.345 24.8994C321.718 25.0316 322.142 25.0977 322.616 25.0977C323.063 25.0977 323.459 25.027 323.806 24.8857C324.157 24.7399 324.432 24.5394 324.633 24.2842C324.833 24.029 324.934 23.735 324.934 23.4023V23.3955C324.934 22.9854 324.783 22.6413 324.482 22.3633C324.182 22.0807 323.692 21.8643 323.013 21.7139L321.919 21.4746C320.93 21.2559 320.21 20.9186 319.759 20.4629C319.312 20.0026 319.089 19.4147 319.089 18.6992V18.6924C319.093 18.1455 319.242 17.6624 319.533 17.2432C319.829 16.8239 320.237 16.4958 320.757 16.2588C321.281 16.0218 321.882 15.9033 322.562 15.9033C323.218 15.9033 323.799 16.0218 324.305 16.2588C324.811 16.4912 325.212 16.8057 325.508 17.2021C325.809 17.5986 325.975 18.043 326.007 18.5352L326.014 18.6309H324.783L324.77 18.542C324.724 18.2503 324.605 17.9928 324.414 17.7695C324.223 17.5417 323.967 17.3617 323.648 17.2295C323.329 17.0973 322.956 17.0335 322.527 17.0381C322.117 17.0381 321.748 17.1019 321.42 17.2295C321.092 17.3571 320.83 17.5417 320.634 17.7832C320.442 18.0202 320.347 18.3118 320.347 18.6582V18.665C320.347 19.057 320.493 19.3874 320.784 19.6562C321.076 19.9251 321.557 20.1325 322.227 20.2783L323.32 20.5244C324.35 20.7523 325.086 21.0827 325.528 21.5156C325.97 21.9486 326.191 22.5205 326.191 23.2314V23.2383C326.191 23.8535 326.041 24.3844 325.74 24.8311C325.439 25.2777 325.016 25.624 324.469 25.8701C323.922 26.1117 323.282 26.2324 322.548 26.2324ZM332.59 26V23.9561H327.784V22.835C328.053 22.3883 328.326 21.9372 328.604 21.4814C328.882 21.0212 329.163 20.5632 329.445 20.1074C329.732 19.6471 330.02 19.1914 330.307 18.7402C330.594 18.2891 330.879 17.8447 331.161 17.4072C331.448 16.9697 331.731 16.5459 332.009 16.1357H333.793V22.8555H335.194V23.9561H333.793V26H332.59ZM329.042 22.8623H332.597V17.2773H332.515C332.291 17.61 332.063 17.9564 331.831 18.3164C331.599 18.6719 331.362 19.0365 331.12 19.4102C330.883 19.7839 330.646 20.1598 330.409 20.5381C330.172 20.9163 329.938 21.2946 329.705 21.6729C329.477 22.0465 329.256 22.4157 329.042 22.7803V22.8623ZM337.095 26V25.1523L340.431 21.543C340.85 21.0872 341.178 20.7113 341.415 20.415C341.652 20.1143 341.818 19.8431 341.914 19.6016C342.01 19.36 342.058 19.0957 342.058 18.8086V18.7949C342.058 18.4486 341.982 18.1387 341.832 17.8652C341.682 17.5918 341.467 17.3753 341.189 17.2158C340.911 17.0563 340.579 16.9766 340.191 16.9766C339.799 16.9766 339.455 17.0586 339.159 17.2227C338.863 17.3822 338.633 17.6077 338.469 17.8994C338.305 18.1865 338.223 18.5238 338.223 18.9111L338.216 18.9248L337.04 18.918L337.026 18.9111C337.031 18.3278 337.172 17.8105 337.45 17.3594C337.728 16.9036 338.111 16.5482 338.599 16.293C339.086 16.0332 339.645 15.9033 340.273 15.9033C340.848 15.9033 341.365 16.0241 341.825 16.2656C342.285 16.5026 342.648 16.8285 342.912 17.2432C343.181 17.6579 343.315 18.1318 343.315 18.665V18.6787C343.315 19.0524 343.249 19.4124 343.117 19.7588C342.99 20.1051 342.762 20.4902 342.434 20.9141C342.105 21.3333 341.643 21.8506 341.046 22.4658L338.496 25.0977L338.804 24.5303V25.0977L338.503 24.8926H343.479V26H337.095Z" fill="black"/>
<rect x="353.5" y="17" width="8" height="11" rx="1.5" stroke="black"/>
<path fill-rule="evenodd" clip-rule="evenodd" d="M357.25 15.5H362C362.552 15.5 363 15.9477 363 16.5V24.75C363 25.3023 362.552 25.75 362 25.75H361.667V26.5C361.667 26.5847 361.661 26.6681 361.651 26.75H362C363.104 26.75 364 25.8546 364 24.75V16.5C364 15.3954 363.104 14.5 362 14.5H357.25C356.23 14.5 355.388 15.2634 355.265 16.25H356.281C356.392 15.8187 356.784 15.5 357.25 15.5Z" fill="black"/>
<line x1="108" y1="21.5" x2="256" y2="21.5" stroke="#FF4E4E"/>
<line x1="19.5" y1="17" x2="19.5" y2="26" stroke="#FF4E4E"/>
<line x1="19" y1="21" x2="23.5" y2="21" stroke="#FF4E4E"/>
<path d="M24.7183 23.5V20.6729H24.6743L23.8101 21.2734V20.6094L24.7207 19.9771H25.4556V23.5H24.7183ZM27.8188 23.5903C27.6138 23.5903 27.4233 23.5537 27.2476 23.4805C27.0718 23.4072 26.9172 23.2957 26.7837 23.146C26.6519 22.9963 26.5485 22.8075 26.4736 22.5796C26.4004 22.3517 26.3638 22.0824 26.3638 21.7715V21.7666C26.3638 21.3743 26.4224 21.0382 26.5396 20.7583C26.6584 20.4767 26.8268 20.2611 27.0449 20.1113C27.263 19.9616 27.5218 19.8867 27.8213 19.8867C28.0492 19.8867 28.2542 19.9282 28.4365 20.0112C28.6188 20.0942 28.7686 20.2074 28.8857 20.3506C29.0046 20.4938 29.0819 20.6574 29.1177 20.8413L29.1226 20.8657H28.4023L28.3926 20.8438C28.3649 20.7689 28.3242 20.7046 28.2705 20.6509C28.2184 20.5955 28.1549 20.5524 28.0801 20.5215C28.0052 20.4906 27.9198 20.4751 27.8237 20.4751C27.6545 20.4751 27.5153 20.5256 27.4062 20.6265C27.2972 20.7274 27.215 20.8641 27.1597 21.0366C27.106 21.2091 27.0742 21.402 27.0645 21.6152C27.0628 21.6396 27.062 21.6641 27.062 21.6885C27.062 21.7113 27.062 21.7357 27.062 21.7617L27.1719 22.3501C27.1719 22.4738 27.2004 22.5853 27.2573 22.6846C27.3143 22.7839 27.3916 22.8628 27.4893 22.9214C27.5869 22.9784 27.6951 23.0068 27.814 23.0068C27.9328 23.0068 28.0402 22.9784 28.1362 22.9214C28.2339 22.8644 28.3112 22.7879 28.3682 22.6919C28.4268 22.5942 28.4561 22.4852 28.4561 22.3647V22.3599C28.4561 22.2362 28.4284 22.1271 28.373 22.0327C28.3177 21.9367 28.242 21.861 28.146 21.8057C28.0516 21.7503 27.9425 21.7227 27.8188 21.7227C27.6984 21.7227 27.5894 21.7495 27.4917 21.8032C27.394 21.8569 27.3159 21.931 27.2573 22.0254C27.2004 22.1182 27.1719 22.2256 27.1719 22.3477V22.3501H27.0254V21.6958H27.1108C27.1548 21.6047 27.2166 21.52 27.2964 21.4419C27.3761 21.3638 27.4762 21.3011 27.5967 21.2539C27.7171 21.2051 27.8579 21.1807 28.019 21.1807C28.2485 21.1807 28.4495 21.2303 28.6221 21.3296C28.7946 21.4289 28.9289 21.5656 29.0249 21.7397C29.1209 21.9139 29.1689 22.1125 29.1689 22.3354V22.3403C29.1689 22.5796 29.1112 22.7936 28.9956 22.9824C28.8817 23.1712 28.723 23.3201 28.5195 23.4292C28.3177 23.5366 28.0841 23.5903 27.8188 23.5903Z" fill="black"/>
<line x1="29.5" y1="21" x2="34" y2="21" stroke="#FF4E4E"/>
<line x1="34.5" y1="17" x2="34.5" y2="26" stroke="#FF4E4E"/>
<line x1="345.5" y1="17" x2="345.5" y2="26" stroke="#FF4E4E"/>
<line x1="345" y1="21" x2="346.5" y2="21" stroke="#FF4E4E"/>
<path d="M348.5 23.5781C348.217 23.5781 347.968 23.535 347.753 23.4487C347.538 23.3608 347.37 23.2396 347.25 23.085C347.13 22.9287 347.069 22.7489 347.069 22.5454V22.5405C347.069 22.3875 347.104 22.2492 347.174 22.1255C347.246 22.0018 347.344 21.8993 347.467 21.8179C347.591 21.7349 347.733 21.6779 347.892 21.647V21.6323C347.685 21.5819 347.518 21.4875 347.389 21.3491C347.262 21.2091 347.199 21.0431 347.199 20.8511V20.8462C347.199 20.6639 347.254 20.502 347.365 20.3604C347.475 20.2171 347.628 20.1048 347.824 20.0234C348.019 19.9404 348.244 19.8989 348.5 19.8989C348.756 19.8989 348.981 19.9404 349.176 20.0234C349.372 20.1048 349.525 20.2171 349.635 20.3604C349.746 20.502 349.801 20.6639 349.801 20.8462V20.8511C349.801 21.0431 349.737 21.2091 349.608 21.3491C349.48 21.4875 349.313 21.5819 349.108 21.6323V21.647C349.267 21.6779 349.409 21.7349 349.533 21.8179C349.656 21.8993 349.753 22.0018 349.823 22.1255C349.895 22.2492 349.931 22.3875 349.931 22.5405V22.5454C349.931 22.7489 349.87 22.9287 349.75 23.085C349.63 23.2396 349.461 23.3608 349.245 23.4487C349.03 23.535 348.782 23.5781 348.5 23.5781ZM348.5 23.041C348.629 23.041 348.743 23.0182 348.842 22.9727C348.941 22.9255 349.018 22.8612 349.074 22.7798C349.131 22.6968 349.159 22.6024 349.159 22.4966V22.4917C349.159 22.3859 349.132 22.2923 349.076 22.2109C349.021 22.1279 348.944 22.0628 348.844 22.0156C348.745 21.9684 348.63 21.9448 348.5 21.9448C348.37 21.9448 348.255 21.9684 348.156 22.0156C348.056 22.0628 347.978 22.1279 347.921 22.2109C347.866 22.2923 347.838 22.3859 347.838 22.4917V22.4966C347.838 22.6024 347.867 22.6968 347.924 22.7798C347.981 22.8612 348.059 22.9255 348.158 22.9727C348.257 23.0182 348.371 23.041 348.5 23.041ZM348.5 21.4102C348.612 21.4102 348.712 21.3898 348.798 21.3491C348.884 21.3068 348.951 21.249 348.998 21.1758C349.047 21.1025 349.071 21.0179 349.071 20.9219V20.917C349.071 20.821 349.047 20.7363 348.998 20.6631C348.949 20.5898 348.882 20.5329 348.795 20.4922C348.711 20.4515 348.612 20.4312 348.5 20.4312C348.388 20.4312 348.288 20.4515 348.202 20.4922C348.116 20.5329 348.048 20.5898 348 20.6631C347.951 20.7363 347.926 20.821 347.926 20.917V20.9219C347.926 21.0179 347.951 21.1025 348 21.1758C348.048 21.249 348.116 21.3068 348.202 21.3491C348.288 21.3898 348.388 21.4102 348.5 21.4102Z" fill="black"/>
<line x1="350.5" y1="21" x2="352" y2="21" stroke="#FF4E4E"/>
<line x1="352.5" y1="17" x2="352.5" y2="26" stroke="#FF4E4E"/>
<line x1="364.5" y1="17" x2="364.5" y2="26" stroke="#FF4E4E"/>
<line x1="364" y1="21" x2="368.5" y2="21" stroke="#FF4E4E"/>
<path d="M369.83 23.5V20.6729H369.786L368.922 21.2734V20.6094L369.833 19.9771H370.567V23.5H369.83ZM371.527 23.5V23.0044L372.662 21.8838C372.828 21.7243 372.957 21.5933 373.048 21.4907C373.139 21.3866 373.202 21.2962 373.238 21.2197C373.274 21.1416 373.292 21.061 373.292 20.978V20.9707C373.292 20.8698 373.27 20.7811 373.226 20.7046C373.184 20.6281 373.122 20.5687 373.041 20.5264C372.959 20.4824 372.862 20.4604 372.75 20.4604C372.636 20.4604 372.535 20.4849 372.447 20.5337C372.359 20.5809 372.291 20.6468 372.242 20.7314C372.193 20.8145 372.169 20.9121 372.169 21.0244V21.0366H371.488L371.485 21.0244C371.485 20.7998 371.54 20.6021 371.649 20.4312C371.76 20.2603 371.912 20.1268 372.105 20.0308C372.301 19.9347 372.527 19.8867 372.784 19.8867C373.027 19.8867 373.24 19.9299 373.424 20.0161C373.609 20.1024 373.754 20.222 373.858 20.375C373.964 20.528 374.017 20.7062 374.017 20.9097V20.917C374.017 21.0505 373.991 21.1815 373.939 21.3101C373.887 21.437 373.799 21.5745 373.675 21.7227C373.552 21.8708 373.382 22.0441 373.167 22.2427L372.318 23.0361L372.516 22.7139V23.0361L372.318 22.9067H374.068V23.5H371.527Z" fill="black"/>
<line x1="374.5" y1="21" x2="379" y2="21" stroke="#FF4E4E"/>
<line x1="379.5" y1="17" x2="379.5" y2="26" stroke="#FF4E4E"/>
<rect x="-0.5" y="0.5" width="72" height="16" transform="matrix(-1 0 0 1 107 13)" stroke="#00A3FF"/>
<rect x="0.5" y="-0.5" width="88" height="16" transform="matrix(1 0 0 -1 256 29)" stroke="#00A3FF"/>
<line x1="98" y1="1.5" x2="107" y2="1.5" stroke="#FF4E4E"/>
<line x1="102" y1="4.5" x2="102" y2="2" stroke="#FF4E4E"/>
<path d="M101.157 9.07031V8.42822H103.843V9.07031H101.157ZM101.157 7.7251V7.08301H103.843V7.7251H101.157Z" fill="black"/>
<line x1="102" y1="13" x2="102" y2="10.5" stroke="#FF4E4E"/>
<line x1="98" y1="12.5" x2="107" y2="12.5" stroke="#FF4E4E"/>
<line x1="98" y1="30.5" x2="107" y2="30.5" stroke="#FF4E4E"/>
<line x1="102" y1="33.5" x2="102" y2="31" stroke="#FF4E4E"/>
<path d="M101.157 38.0703V37.4282H103.843V38.0703H101.157ZM101.157 36.7251V36.083H103.843V36.7251H101.157Z" fill="black"/>
<line x1="102" y1="42" x2="102" y2="39.5" stroke="#FF4E4E"/>
<line x1="98" y1="41.5" x2="107" y2="41.5" stroke="#FF4E4E"/>
<line x1="3" y1="0.5" x2="12" y2="0.5" stroke="#FF4E4E"/>
<line x1="7" y1="18.5" x2="7" y2="1" stroke="#FF4E4E"/>
<path d="M6.52344 23.5V22.853H4.79736V22.2744C4.88688 22.1149 4.97721 21.957 5.06836 21.8008C5.15951 21.6429 5.25146 21.4867 5.34424 21.332C5.43864 21.1758 5.53223 21.022 5.625 20.8706C5.7194 20.7176 5.8138 20.5671 5.9082 20.4189C6.0026 20.2692 6.09701 20.1219 6.19141 19.9771H7.22656V22.2622H7.68555V22.853H7.22656V23.5H6.52344ZM5.46143 22.2817H6.53809V20.5361H6.49902C6.43066 20.6419 6.36068 20.7502 6.28906 20.8608C6.21908 20.9715 6.14827 21.0846 6.07666 21.2002C6.00667 21.3158 5.93587 21.4321 5.86426 21.5493C5.79427 21.6649 5.7251 21.7812 5.65674 21.8984C5.59001 22.014 5.5249 22.1287 5.46143 22.2427V22.2817ZM9.12598 23.5V20.6729H9.08203L8.21777 21.2734V20.6094L9.12842 19.9771H9.86328V23.5H9.12598Z" fill="white"/>
<line x1="7" y1="42" x2="7" y2="24.5" stroke="#FF4E4E"/>
<line x1="3" y1="41.5" x2="12" y2="41.5" stroke="#FF4E4E"/>
<path d="M19 13C19 6.37258 24.3726 1 31 1" stroke="#FF4E4E"/>
<path d="M20.2183 12V9.17285H20.1743L19.3101 9.77344V9.10938L20.2207 8.47705H20.9556V12H20.2183ZM21.915 12V11.5044L23.0503 10.3838C23.2163 10.2243 23.3449 10.0933 23.436 9.99072C23.5272 9.88656 23.5907 9.79622 23.6265 9.71973C23.6623 9.6416 23.6802 9.56104 23.6802 9.47803V9.4707C23.6802 9.36979 23.6582 9.28109 23.6143 9.20459C23.5719 9.12809 23.5101 9.06868 23.4287 9.02637C23.3473 8.98242 23.2505 8.96045 23.1382 8.96045C23.0243 8.96045 22.9233 8.98486 22.8354 9.03369C22.7476 9.08089 22.6792 9.14681 22.6304 9.23145C22.5815 9.31445 22.5571 9.41211 22.5571 9.52441V9.53662H21.876L21.8735 9.52441C21.8735 9.2998 21.9281 9.10205 22.0371 8.93115C22.1478 8.76025 22.3 8.62679 22.4937 8.53076C22.689 8.43473 22.9152 8.38672 23.1724 8.38672C23.4149 8.38672 23.6281 8.42985 23.812 8.51611C23.9976 8.60238 24.1424 8.72201 24.2466 8.875C24.3524 9.02799 24.4053 9.20622 24.4053 9.40967V9.41699C24.4053 9.55046 24.3792 9.68148 24.3271 9.81006C24.2751 9.93701 24.1872 10.0745 24.0635 10.2227C23.9398 10.3708 23.7705 10.5441 23.5557 10.7427L22.7061 11.5361L22.9038 11.2139V11.5361L22.7061 11.4067H24.4565V12H21.915Z" fill="black"/>
<line x1="355" y1="13.5" x2="364" y2="13.5" stroke="#FF4E4E"/>
<line x1="359" y1="19" x2="359" y2="14" stroke="#FF4E4E"/>
<mask id="path-43-outside-1_437_652" maskUnits="userSpaceOnUse" x="355.5" y="19" width="8" height="6" fill="black">
<rect fill="white" x="355.5" y="19" width="8" height="6"/>
<path d="M357.928 24V21.1729H357.884L357.02 21.7734V21.1094L357.93 20.4771H358.665V24H357.928ZM359.781 24L361.282 21.1045V21.063H359.505V20.4746H362.024V21.0703L360.552 24H359.781Z"/>
</mask>
<path d="M357.928 24V21.1729H357.884L357.02 21.7734V21.1094L357.93 20.4771H358.665V24H357.928ZM359.781 24L361.282 21.1045V21.063H359.505V20.4746H362.024V21.0703L360.552 24H359.781Z" fill="white"/>
<path d="M357.928 24H356.928V25H357.928V24ZM357.928 21.1729H358.928V20.1729H357.928V21.1729ZM357.884 21.1729V20.1729H357.57L357.313 20.3517L357.884 21.1729ZM357.02 21.7734H356.02V23.6861L357.59 22.5946L357.02 21.7734ZM357.02 21.1094L356.449 20.288L356.02 20.5863V21.1094H357.02ZM357.93 20.4771V19.4771H357.617L357.36 19.6557L357.93 20.4771ZM358.665 20.4771H359.665V19.4771H358.665V20.4771ZM358.665 24V25H359.665V24H358.665ZM358.928 24V21.1729H356.928V24H358.928ZM357.928 20.1729H357.884V22.1729H357.928V20.1729ZM357.313 20.3517L356.449 20.9522L357.59 22.5946L358.454 21.994L357.313 20.3517ZM358.02 21.7734V21.1094H356.02V21.7734H358.02ZM357.59 21.9308L358.501 21.2984L357.36 19.6557L356.449 20.288L357.59 21.9308ZM357.93 21.4771H358.665V19.4771H357.93V21.4771ZM357.665 20.4771V24H359.665V20.4771H357.665ZM358.665 23H357.928V25H358.665V23ZM359.781 24L358.893 23.5397L358.136 25H359.781V24ZM361.282 21.1045L362.17 21.5648L362.282 21.3483V21.1045H361.282ZM361.282 21.063H362.282V20.063H361.282V21.063ZM359.505 21.063H358.505V22.063H359.505V21.063ZM359.505 20.4746V19.4746H358.505V20.4746H359.505ZM362.024 20.4746H363.024V19.4746H362.024V20.4746ZM362.024 21.0703L362.918 21.5193L363.024 21.3074V21.0703H362.024ZM360.552 24V25H361.169L361.446 24.449L360.552 24ZM360.669 24.4603L362.17 21.5648L360.394 20.6442L358.893 23.5397L360.669 24.4603ZM362.282 21.1045V21.063H360.282V21.1045H362.282ZM361.282 20.063H359.505V22.063H361.282V20.063ZM360.505 21.063V20.4746H358.505V21.063H360.505ZM359.505 21.4746H362.024V19.4746H359.505V21.4746ZM361.024 20.4746V21.0703H363.024V20.4746H361.024ZM361.131 20.6213L359.659 23.551L361.446 24.449L362.918 21.5193L361.131 20.6213ZM360.552 23H359.781V25H360.552V23Z" fill="black" mask="url(#path-43-outside-1_437_652)"/>
<line x1="359" y1="30" x2="359" y2="25" stroke="#FF4E4E"/>
<line x1="355" y1="29.5" x2="364" y2="29.5" stroke="#FF4E4E"/>
</svg>
